<svg xmlns="http://www.w3.org/2000/svg" version="1.1" xmlns:xlink="http://www.w3.org/1999/xlink" xmlns:svgjs="http://svgjs.dev/svgjs" width="160" height="32"><svg width="160" height="32" viewBox="0 0 160 32" fill="none" xmlns="http://www.w3.org/2000/svg">
<path d="M42.5395 25.0321C43.4713 25.4983 44.6553 25.8479 46.0918 26.081C47.5282 26.2753 49.0228 26.4112 50.5757 26.4889C52.1286 26.5278 53.5068 26.5472 54.7103 26.5472C55.1374 26.5472 55.6615 26.5472 56.2826 26.5472C56.9426 26.5472 57.4861 26.5278 57.9131 26.4889C59.1555 26.4501 60.2231 26.3141 61.116 26.081C62.0089 25.8091 62.6883 25.3818 63.1542 24.799C63.62 24.2163 63.853 23.4005 63.853 22.3516C63.853 21.0696 63.5036 20.2344 62.8048 19.8459C62.106 19.4186 61.0383 19.2049 59.6019 19.2049C59.1361 19.2049 58.5925 19.2049 57.9714 19.2049C57.389 19.2049 56.6902 19.2049 55.875 19.2049C55.0597 19.2049 54.0503 19.2049 52.8468 19.2049C51.6434 19.2049 50.4399 19.1467 49.2364 19.0301C48.0329 18.9136 46.9264 18.6417 45.9171 18.2143C44.9465 17.787 44.1701 17.1072 43.5877 16.1748C43.0054 15.2036 42.7142 13.8634 42.7142 12.1541C42.7142 10.134 43.0636 8.56063 43.7624 7.43404C44.4612 6.2686 45.4512 5.41395 46.7323 4.87008C48.0135 4.28736 49.5275 3.91831 51.2745 3.76292C53.0215 3.60752 54.9238 3.52983 56.9814 3.52983C58.2237 3.52983 59.5825 3.54925 61.0578 3.5881C62.533 3.62695 63.9112 3.70464 65.1923 3.82119C66.5123 3.93773 67.5217 4.11255 68.2205 4.34563C69.3075 4.42333 70.1422 4.73411 70.7245 5.27798C71.3068 5.783 71.598 6.424 71.598 7.20095C71.598 7.3175 71.598 7.53116 71.598 7.84194C71.598 8.15273 71.598 8.46351 71.598 8.77429C71.598 9.08508 71.598 9.25989 71.598 9.29874C71.2874 8.98796 70.7051 8.73544 69.851 8.54121C69.0357 8.34697 68.0846 8.211 66.9976 8.1333C65.9494 8.01676 64.9012 7.93906 63.853 7.90021C62.8048 7.86137 61.9118 7.84194 61.1742 7.84194H56.5738C55.3703 7.84194 54.3221 7.93906 53.4292 8.1333C52.5751 8.32754 51.8957 8.6966 51.391 9.24047C50.9251 9.74549 50.6922 10.5224 50.6922 11.5713C50.6922 12.3871 50.8475 13.0281 51.1581 13.4943C51.5075 13.9216 51.9928 14.213 52.6139 14.3684C53.2739 14.5238 54.0892 14.6015 55.0597 14.6015C57.1173 14.6015 58.8061 14.6015 60.126 14.6015C61.4848 14.6015 62.4359 14.6015 62.9795 14.6015C64.8041 14.6015 66.3958 14.7569 67.7546 15.0676C69.1134 15.3784 70.1616 16.0583 70.8992 17.1072C71.6757 18.1561 72.0639 19.7877 72.0639 22.002C72.0639 24.0998 71.6174 25.7702 70.7245 27.0134C69.8704 28.2565 68.6863 29.15 67.1723 29.6939C65.6582 30.2377 63.8918 30.568 61.873 30.6845C60.359 30.801 58.9031 30.8593 57.5055 30.8593C56.1079 30.8593 54.6327 30.8593 53.0798 30.8593C51.7598 30.8205 50.4593 30.7622 49.1781 30.6845C47.9358 30.6068 46.81 30.4514 45.8006 30.2183C44.83 29.9852 44.0342 29.6745 43.413 29.286C42.8307 28.8586 42.5395 28.2954 42.5395 27.5961V25.0321Z" fill="white"></path>
<path d="M75.6057 3.76292H105.771V7.95849H94.5898V27.8292C94.5898 28.9169 94.4345 29.655 94.1239 30.0435C93.8133 30.3931 93.0951 30.568 91.9692 30.568H86.7865V7.95849H75.6057V3.76292Z" fill="white"></path>
<path d="M110.758 30.568C110.758 26.5278 110.758 22.507 110.758 18.5057C110.758 14.4655 110.758 10.4253 110.758 6.38515C110.758 5.80243 110.797 5.31683 110.874 4.92835C110.952 4.53987 111.165 4.24851 111.515 4.05428C111.903 3.86004 112.524 3.76292 113.378 3.76292H118.503V30.568H110.758Z" fill="white"></path>
<path d="M126.283 30.568V6.50169C126.283 5.25856 126.458 4.50103 126.807 4.22909C127.195 3.91831 128.01 3.76292 129.253 3.76292H135.134L142.938 21.1279L143.054 21.6524L143.171 21.5941L143.287 21.0114L150.916 3.76292H157.147C158.35 3.76292 159.127 3.91831 159.476 4.22909C159.825 4.53987 160 5.23913 160 6.32688V28.004C160 28.8198 159.903 29.4025 159.709 29.7521C159.554 30.1018 159.262 30.3349 158.835 30.4514C158.447 30.5291 157.865 30.568 157.088 30.568H152.197V12.1541L151.847 13.4943L144.335 30.568H139.502L132.106 13.7274L131.815 12.3871V30.568H126.283Z" fill="white"></path>
<path fill-rule="evenodd" clip-rule="evenodd" d="M1.33251 12.7809C-0.444172 14.5588 -0.444171 17.4412 1.33251 19.2191L12.7725 30.6666C14.5492 32.4445 17.4297 32.4445 19.2064 30.6666L30.6464 19.2191C32.4231 17.4412 32.4231 14.5588 30.6464 12.7809L19.2064 1.33339C17.4297 -0.444464 14.5492 -0.444464 12.7725 1.33339L1.33251 12.7809ZM16.0759 19.3282C17.9128 19.3282 19.4019 17.8381 19.4019 16C19.4019 14.1619 17.9128 12.6718 16.0759 12.6718C14.239 12.6718 12.7499 14.1619 12.7499 16C12.7499 17.8381 14.239 19.3282 16.0759 19.3282Z" fill="white"></path>
</svg><style>@media (prefers-color-scheme: light) { :root { filter: none; } }
@media (prefers-color-scheme: dark) { :root { filter: none; } }
</style></svg>